<?xml version="1.0" encoding="UTF-8" standalone="no"?>
<svg width="21px" height="20px" viewBox="0 0 21 20" version="1.1" xmlns="http://www.w3.org/2000/svg" xmlns:xlink="http://www.w3.org/1999/xlink">
    <!-- Generator: Sketch 3.8.2 (29753) - http://www.bohemiancoding.com/sketch -->
    <title>Slice 1</title>
    <desc>Created with Sketch.</desc>
    <defs></defs>
    <g id="Page-1" stroke="none" stroke-width="1" fill="none" fill-rule="evenodd">
        <g id="sign" fill="#4B4B4B">
            <g id="Page-1">
                <path d="M18.76,2.52 L16.84,0.6 L15.48,2 C13.88,0.84 11.96,0.24 9.96,0.24 C7.4,0.24 5,1.24 3.16,3.04 C1.36,4.88 0.36,7.28 0.36,9.84 C0.36,11.84 0.96,13.76 2.08,15.36 L0.4,17.04 L2.32,18.96 L3.96,17.32 C5.64,18.68 7.76,19.44 9.96,19.44 C12.52,19.44 14.92,18.44 16.72,16.64 C18.56,14.8 19.56,12.4 19.56,9.84 C19.56,7.64 18.8,5.56 17.44,3.84 L18.76,2.52 Z M3.8,9.84 C3.8,6.44 6.56,3.68 9.96,3.68 C11.04,3.68 12.08,3.96 12.96,4.48 L4.6,12.84 C4.08,11.96 3.8,10.92 3.8,9.84 L3.8,9.84 Z M9.96,16 C8.64,16 7.4,15.6 6.4,14.88 L15,6.32 C15.68,7.32 16.12,8.52 16.12,9.84 C16.12,13.24 13.36,16 9.96,16 L9.96,16 Z" id="ø"></path>
            </g>
        </g>
    </g>
</svg>